<svg width="1256" height="1252" viewBox="0 0 1256 1252" fill="none" xmlns="http://www.w3.org/2000/svg">
<path d="M662.381 27.7095C632.809 35.7907 610.058 43.8163 573.711 58.9068C553.325 67.4995 533.054 76.3677 528.886 78.6145C524.709 80.9944 514.57 86.4306 506.377 90.8006C455.273 118.087 400.852 160.244 367.545 198.672C350.971 217.69 323.857 255.483 325.464 257.334C325.712 257.619 330.626 259.969 336.585 262.66C351.223 269.302 381.412 284.788 396.84 293.49L409.692 300.809L426.419 291.024C462.654 269.911 504.677 252.011 559.659 234.22C617.091 215.798 671.49 202.51 736.871 190.797C768.27 185.249 786.648 182.397 809.834 179.614C836.789 176.428 838.271 176.266 863.414 174.155C897.695 171.35 937.487 170.002 954.113 171.17C959.966 171.581 964.791 171.384 964.838 170.72C964.885 170.055 960.813 165.224 955.953 160.205C905.848 108.567 811.043 61.5421 685.882 26.1523L677.101 23.6642L662.381 27.7095Z" fill="#BB3C5D"/>
<path d="M868.585 292.426C695.468 284.965 570.858 290.164 493.572 307.779C469.214 313.424 439.042 324.02 438.879 327.219C438.963 327.762 443.399 331.923 449.004 336.459C461.577 346.728 514.587 394.62 530.688 410.171L542.607 421.719L554.416 420.001C567.843 418.165 583.659 416.549 592.678 416.046C596.046 415.821 602.372 415.47 606.815 415.212C697.336 409.401 811.143 425.43 900.914 456.64C936.854 469.073 978.567 487.13 1003.65 501.103C1006.33 502.556 1009.52 504.323 1010.91 505.122C1082.72 543.776 1155.9 600.899 1211.71 661.905C1217.54 668.337 1222.7 673.368 1222.99 673.127C1223.58 672.512 1221.01 654.063 1218.86 645.427C1216.01 632.845 1211.51 619.305 1202.85 597.079C1160.23 487.616 1070.8 360.16 1001.16 309.658L992.13 303.063L941.028 298.197C912.894 295.458 880.329 292.844 868.585 292.426Z" fill="#BB3C5D"/>
<path d="M258.004 584.599C238.538 593.399 238.538 623.133 257.871 632.199C261.738 633.933 267.204 635.399 270.138 635.399C277.204 635.399 286.271 630.599 291.338 624.333C294.938 619.933 295.471 617.933 295.871 609.666C296.271 600.866 296.004 599.533 292.404 593.933C285.338 582.999 270.538 578.866 258.004 584.599Z" fill="#BB3C5D"/>
<path d="M658.804 478.533C633.071 480.399 588.138 486.666 586.271 488.533C585.471 489.333 584.804 488.266 599.604 507.866C618.538 532.933 635.604 559.199 651.338 587.199L659.604 602.133L675.871 607.733C749.738 633.333 829.338 679.466 892.138 732.933C1009.34 832.933 1090.4 966.799 1123.2 1115.07C1124 1118.67 1125.34 1125.34 1126.14 1129.74C1127.07 1134.14 1128.14 1140.14 1128.8 1143.07C1129.47 1146 1131.2 1158 1132.8 1169.74C1134.4 1181.47 1136 1194 1136.54 1197.74L1137.47 1204.4L1146.94 1188.4C1165.74 1156.8 1179.07 1130.94 1192.27 1100C1193.34 1097.74 1195.07 1093.6 1196.27 1090.94C1204.27 1072.94 1221.6 1019.47 1227.47 995.066C1233.47 969.466 1234.8 962.799 1238.67 939.066C1245.74 895.599 1247.47 873.066 1247.47 827.866V789.466L1235.74 770.933C1149.87 635.599 1021.07 540.133 867.471 498.266C857.471 495.466 854.004 494.666 841.471 491.866C784.938 479.333 715.604 474.266 658.804 478.533Z" fill="#BB3C5D"/>
<path d="M684.471 681.734C684.471 682.134 685.271 684.401 686.338 686.801C689.538 694.534 700.204 731.734 705.004 751.734C718.871 810.001 723.538 850.001 723.538 913.734C723.538 988.934 716.204 1039.74 694.871 1113.74C691.938 1124 689.004 1133.47 688.338 1134.67C686.471 1138.27 688.071 1137.6 697.671 1131.47C789.938 1072.4 868.738 989.067 925.671 890.667L931.404 880.934L923.671 870.667C908.871 850.934 887.271 826.934 864.338 804.401C815.404 756.667 769.004 723.334 708.604 692.801C684.871 680.801 684.471 680.534 684.471 681.734Z" fill="#BB3C5D"/>
<path fill-rule="evenodd" clip-rule="evenodd" d="M294.103 303.694C294.709 306.066 296.302 307.028 298.885 306.577C365.405 338.636 423.694 381.98 473.754 436.608C473.748 438.975 474.851 440.475 477.059 441.108C487.194 449.79 495.912 459.729 503.215 470.925C503.209 473.292 504.311 474.792 506.519 475.425C509.46 477.845 511.664 480.845 513.128 484.427C513.123 486.794 514.225 488.294 516.433 488.927C516.427 491.295 517.529 492.795 519.737 493.428C602.216 609 639.334 738.049 631.09 880.569C628.837 918.671 622.787 956.149 612.94 993.005C539.06 1074.18 464.964 1155.05 390.648 1235.62C274.143 1241.93 158.072 1246.17 42.4348 1248.32C56.0412 1197.36 70.2726 1146.59 85.1293 1096.01C133.636 1094.33 182.085 1091.62 230.476 1087.87C230.242 1086.94 229.703 1086.45 228.859 1086.39C215.909 1071.24 203.323 1055.79 191.102 1040.05C160.879 1040.9 130.9 1040.71 101.166 1039.48C117.158 979.517 134.086 919.842 151.949 860.456C152.785 860.325 153.277 859.787 153.426 858.839C117.03 859.457 80.887 860.064 44.9961 860.659C85.239 716.101 125.964 571.637 167.171 427.267C205.814 384.95 244.456 342.635 283.099 300.318C286.925 300.485 290.592 301.612 294.103 303.694ZM341.823 637.916C339.681 638.747 338.72 640.341 338.94 642.698C335.34 645.017 332.902 648.228 331.626 652.331C328.188 653.386 325.704 655.565 324.172 658.87C285.383 684.377 249.568 680.834 216.728 648.243C216.733 645.876 215.631 644.376 213.423 643.743C192.099 605.451 197.271 571.369 228.936 541.502C289.142 507.113 349.606 473.107 410.328 439.486C433.171 459.845 453.818 482.16 472.272 506.433C427.402 523.106 382.118 538.594 336.415 552.902C340.499 560.713 344.226 568.811 347.594 577.198C353.582 598.247 351.659 618.487 341.823 637.916ZM372.953 913.985C369.514 915.04 367.03 917.219 365.498 920.524C362.99 922.188 361.021 924.344 359.591 926.993C355.651 928.596 352.674 931.315 350.66 935.149C348.645 936.274 347.168 937.891 346.23 940C342.289 941.604 339.312 944.323 337.299 948.157C335.284 949.282 333.807 950.899 332.869 953.008C328.928 954.612 325.951 957.331 323.938 961.164C280.664 895.007 238.103 828.213 196.257 760.785C195.155 759.285 195.084 757.738 196.046 756.144C206.384 744.824 216.721 733.503 227.059 722.183C278.683 782.72 329.764 843.702 380.301 905.126C377.524 907.893 375.073 910.846 372.953 913.985ZM542.066 917.162C543.072 918.498 543.657 920.021 543.823 921.733C533.256 932.492 522.906 943.554 512.776 954.921C511.791 955.999 510.76 956.046 509.682 955.061C447.596 896.387 385.51 837.716 323.424 779.042C340.721 762.811 357.528 746.029 373.846 728.699C374.831 727.62 375.861 727.573 376.94 728.558C431.735 791.691 486.778 854.558 542.066 917.162Z" fill="#BB3C5D"/>
</svg>
