<svg width="1240" height="1212" viewBox="0 0 1240 1212" fill="none" xmlns="http://www.w3.org/2000/svg">
<path d="M582.933 5.99995C554 16.1333 531.867 25.7333 496.667 43.3333C476.933 53.3333 457.333 63.6 453.333 66.1333C449.333 68.8 439.6 74.9333 431.733 79.8666C382.667 110.667 331.333 156.533 300.8 197.2C285.6 217.333 261.2 256.933 262.933 258.667C263.2 258.933 268.267 260.933 274.4 263.2C289.467 268.8 320.667 282.133 336.667 289.733L350 296.133L366 285.2C400.667 261.6 441.333 240.8 494.933 219.2C550.933 196.8 604.267 179.733 668.667 163.467C699.6 155.733 717.733 151.6 740.667 147.2C767.333 142.133 768.8 141.867 793.733 138C827.733 132.8 867.333 128.667 884 128.667C889.867 128.667 894.667 128.133 894.667 127.467C894.667 126.8 890.267 122.267 885.067 117.6C831.467 69.6 733.6 29.3333 606.267 2.79995L597.333 0.933285L582.933 5.99995Z" fill="#BB3C5D"/>
<path d="M842 260.8C668.933 269.334 545.333 286 470 310.667C446.267 318.534 417.2 331.867 417.333 335.067C417.467 335.6 422.267 339.334 428.267 343.334C441.733 352.4 498.933 395.2 516.4 409.2L529.333 419.6L540.933 416.8C554.133 413.734 569.733 410.667 578.667 409.334C582 408.8 588.267 407.867 592.667 407.2C682.267 393.067 797.067 398.534 889.333 421.334C926.267 430.4 969.467 444.534 995.733 456.134C998.533 457.334 1001.87 458.8 1003.33 459.467C1078.4 491.334 1156.53 541.467 1217.73 597.067C1224.13 602.934 1229.73 607.467 1230 607.2C1230.53 606.534 1226.27 588.4 1223.33 580C1219.33 567.734 1213.6 554.667 1202.93 533.334C1150.4 428.267 1049.6 309.6 975.6 265.734L966 260L914.667 259.867C886.4 259.734 853.733 260.134 842 260.8Z" fill="#BB3C5D"/>
<path d="M225.467 346.933C224.667 351.2 221.867 365.467 219.333 378.667C216.933 391.867 213.2 410.8 211.333 420.667C209.467 430.533 207.333 441.6 206.667 445.333C204.267 458.533 200.4 475.467 199.6 476.267C199.067 476.667 193.467 475.467 187.067 473.467C166.667 467.2 150.267 462.133 140.667 459.333C135.6 457.733 130 455.867 128.267 455.2C124 453.467 120 453.733 119.333 455.6C119.067 456.533 112.8 476.8 105.333 500.667C97.8667 524.533 87.3333 558.4 81.8667 576C76.2667 593.6 70.9333 610.933 69.8667 614.667C68.6667 618.267 66.6667 624.667 65.3333 628.667C64 632.667 60.4 644.133 57.3333 654C54.2667 663.867 49.8667 678.267 47.3333 686C42.1333 702.8 34.5333 727.067 25.4667 756C21.8667 767.733 18 780 16.9333 783.333C15.8667 786.667 13.0667 795.6 10.6667 803.333C8.26667 811.067 4.93333 821.867 3.2 827.333C1.46667 832.8 0 837.467 0 837.6C0 837.867 21.6 838 48 838C93.3333 838 96 838.133 96 840.4C96 841.733 83.4667 880.8 68 927.2C52.6667 973.6 40 1012.13 40 1012.8C40 1013.47 55.0667 1014 76.5333 1014H113.067L122.933 1028C128.267 1035.6 136.933 1048 142 1055.47C147.2 1062.93 151.867 1069.73 152.533 1070.67C153.2 1071.6 153.467 1073.2 152.933 1074.27C152.4 1075.87 150.933 1076.13 145.067 1075.2C141.2 1074.67 131.067 1073.6 122.667 1072.67C114.267 1071.87 102.267 1070.67 96 1070C68.2667 1066.8 44.9333 1064.67 44.2667 1065.2C44 1065.6 42.6667 1071.47 41.3333 1078.27C40 1085.07 34.9333 1110.4 30 1134.67C25.0667 1158.8 20.5333 1181.33 19.8667 1184.67C19.2 1188 17.8667 1194.8 16.8 1199.87C15.6 1204.93 15.0667 1209.6 15.4667 1210.13C15.8667 1210.8 62.1333 1211.33 118.267 1211.33C200.267 1211.33 220.133 1211.07 219.6 1209.6C219.333 1208.67 208.667 1190.93 196.133 1170C183.6 1149.2 173.867 1131.6 174.4 1131.07C174.933 1130.67 184.4 1129.6 195.333 1128.8C270.8 1123.47 336.133 1097.87 396.933 1049.73C413.067 1036.93 441.6 1008.27 456.133 990.4C482 958.267 497.867 931.6 518.533 885.733C525.467 870.133 537.6 829.6 542 807.333C548.8 772.8 550 760.267 550 722C550 688.667 549.333 680.533 545.2 656C533.467 587.467 501.867 520.8 456.533 468.533C411.467 416.667 359.333 380.8 292 355.467C276.933 349.867 236.4 339.467 229.2 339.333C227.6 339.333 226.667 341.467 225.467 346.933ZM379.867 460.933C419.333 509.067 434.533 528.133 434.667 530.133C434.667 531.733 431.733 532.667 421.733 534.4C398.667 538.133 370.667 543.067 344 547.867C329.733 550.533 309.467 554 298.933 555.867C288.4 557.6 279.467 559.467 279.067 559.867C278.533 560.267 279.467 562.933 281.067 565.733C288.133 578.4 291.467 595.733 289.333 609.2C287.067 623.333 284.8 629.2 277.2 640.8C271.067 649.867 260.133 660.133 251.067 665.067C242.533 669.6 225.733 674 216.8 674C198.4 673.867 177.867 665.2 165.2 652.4C150.533 637.467 143.467 620.4 143.6 600C143.6 586.8 145.6 578.667 151.733 566.533C160.4 549.333 170 541.867 206.667 523.467C292.267 480.4 360.8 445.467 362 444.533C362.667 443.867 363.733 443.333 364.267 443.333C364.8 443.333 371.867 451.333 379.867 460.933ZM179.6 728.267C194.8 748.267 222 784.4 253.467 826C267.067 844 285.067 867.733 293.333 878.667C301.6 889.733 309.467 899.867 310.8 901.467C312.267 902.933 313.333 904.8 313.333 905.467C313.333 906.133 306.267 913.067 297.733 920.667C289.2 928.4 275.867 940.267 268.267 947.2C256.533 958 254.267 959.467 252.667 957.867C250.933 956.133 243.333 943.333 231.333 922C228.267 916.533 224.533 909.867 223.067 907.333C221.6 904.8 213.467 890.667 205.067 876C180.133 832.4 143.333 768.667 137.467 758.667C134.4 753.6 132 748.533 132 747.467C132 744.8 162.8 713.067 165.467 712.8C166.8 712.8 172.267 718.8 179.6 728.267ZM323.6 742.8C332.267 753.6 340.8 764.267 342.667 766.533C344.4 768.8 371.867 803.2 403.6 842.8C435.333 882.533 461.333 915.6 461.333 916.267C461.333 916.8 453.467 925.2 444 934.667L426.533 952L408.933 934C388.267 912.667 363.467 887.2 307.333 829.333C284.667 805.867 263.2 783.733 259.6 780.133C256.133 776.533 253.467 773.067 253.6 772.4C254.267 770.667 305.6 723.333 306.933 723.333C307.467 723.333 315.067 732.133 323.6 742.8Z" fill="#BB3C5D"/>
<path d="M204.533 576.533C185.067 585.333 185.067 615.067 204.4 624.133C208.267 625.867 213.733 627.333 216.667 627.333C223.733 627.333 232.8 622.533 237.867 616.267C241.467 611.867 242 609.867 242.4 601.6C242.8 592.8 242.533 591.467 238.933 585.867C231.867 574.933 217.067 570.8 204.533 576.533Z" fill="#BB3C5D"/>
<path d="M651.333 471.467C625.6 473.333 580.667 479.6 578.8 481.467C578 482.267 577.333 481.2 592.133 500.8C611.067 525.867 628.133 552.133 643.867 580.133L652.133 595.067L668.4 600.667C742.267 626.267 821.867 672.4 884.667 725.867C1001.87 825.867 1082.93 959.733 1115.73 1108C1116.53 1111.6 1117.87 1118.27 1118.67 1122.67C1119.6 1127.07 1120.67 1133.07 1121.33 1136C1122 1138.93 1123.73 1150.93 1125.33 1162.67C1126.93 1174.4 1128.53 1186.93 1129.07 1190.67L1130 1197.33L1139.47 1181.33C1158.27 1149.73 1171.6 1123.87 1184.8 1092.93C1185.87 1090.67 1187.6 1086.53 1188.8 1083.87C1196.8 1065.87 1214.13 1012.4 1220 988C1226 962.4 1227.33 955.733 1231.2 932C1238.27 888.533 1240 866 1240 820.8V782.4L1228.27 763.867C1142.4 628.533 1013.6 533.067 860 491.2C850 488.4 846.533 487.6 834 484.8C777.467 472.267 708.133 467.2 651.333 471.467Z" fill="#BB3C5D"/>
<path d="M692 686.667C692 687.067 692.8 689.334 693.867 691.734C697.067 699.467 707.733 736.667 712.533 756.667C726.4 814.934 731.067 854.934 731.067 918.667C731.067 993.867 723.733 1044.67 702.4 1118.67C699.467 1128.93 696.533 1138.4 695.867 1139.6C694 1143.2 695.6 1142.53 705.2 1136.4C797.467 1077.33 876.267 994 933.2 895.6L938.933 885.867L931.2 875.6C916.4 855.867 894.8 831.867 871.867 809.334C822.933 761.6 776.533 728.267 716.133 697.734C692.4 685.734 692 685.467 692 686.667Z" fill="#BB3C5D"/>
</svg>
